<?xml version="1.0" encoding="UTF-8"?>
<svg id="Layer_2" data-name="Layer 2" xmlns="http://www.w3.org/2000/svg" viewBox="0 0 2792.34 1015.13">
  <g id="logo-group">
    <g>
      <g id="saturday">
        <path class="cls-1" d="M520.31,860.32c-11.7,0-20.99-2.27-25.16-14.14-5.3-15.11,2.41-28.31,17.24-33.72,172.53-62.92,362.48-123.36,564.58-169.53,161.53-36.9,331.17-68.08,504.2-92.67,294.7-41.89,500.25-50.26,502.29-50.34,15.73-.66,28.97,11.88,29.57,27.92.6,16.03-11.66,29.53-27.39,30.15-2.02.08-205.31,8.38-497.37,49.93-171.4,24.38-339.39,55.27-499.3,91.82-199.65,45.62-387.18,95.1-557.37,157.17-3.17,1.16-8.09,3.42-11.28,3.42Z"/>
        <path class="cls-1" d="M9.69,907.16c-6.46-19.33-10.43-46.88-9.57-74.26,1.09-34.81,31.9-61.15,66.47-56.93l1.7.21c28.97,3.54,50.59,27.67,52.06,56.82.58,11.49,2.61,22.75,5.91,32.62,14.95,44.73,64.04,56.61,112.57,40.39,62.64-20.94,94.45-81.3,79.24-126.8-36.61-109.51-227.66-41.36-278.96-194.82-29.39-87.91,28.06-206.56,158.64-250.21,124.68-41.68,219.52,12.37,232.37,103.92,3.95,28.16-13.01,55.09-39.98,64.11l-6.92,2.31c-31.13,10.41-65.09-6.37-75.09-37.64-14.8-46.27-58.47-53.18-92.72-41.73-52.94,17.69-74.97,66.21-60.02,110.94,31.96,95.62,231.4,34.96,282.49,193.64,31.08,95.92-38.31,222.85-179.47,270.04-117.35,39.22-217.27,1.47-248.72-92.62Z"/>
        <path class="cls-1" d="M834.78,461.67c6.46,2.05,10.3,8.67,8.84,15.29-14.76,66.66-58.66,182.03-133.04,203.27-25.63,7.32-48.88,1.73-63.96-11.33-6.33-5.48-16.01-3.87-20.12,3.43-12.89,22.91-33.45,41.47-64.07,50.22-51.89,14.82-94.37-11.44-111.64-71.91-24.97-87.42,20.76-200.73,103.48-224.35,21.62-6.18,45.18-4.02,62.62,3.36,8.09,3.42,17.16-2.01,18.06-10.74h0c.55-5.33,4.28-9.78,9.43-11.25l61.11-17.45c9.05-2.58,17.79,4.93,16.59,14.26-19.46,151.99-26.77,201.21-1.51,194,25.48-7.28,53.82-62.61,70.57-135.78,1.71-7.46,9.43-11.87,16.72-9.55l26.92,8.54ZM628.19,506.26c.46-5.98-3.2-11.54-8.89-13.43-11.16-3.71-22.73-4.69-34.98-1.19-43.62,12.46-56.81,80.21-44.23,124.25,5.26,18.4,17.47,29.84,37.02,24.26,26.1-7.45,44.53-49.72,51.07-133.89Z"/>
        <path class="cls-1" d="M1024.35,419.48c4.83,1.7,7.61,6.78,6.39,11.75-16.14,65.69-63.83,182.72-139.93,201.96-103.05,26.04-115.02-61.97-101.63-186.83.74-6.89-5.64-12.4-12.36-10.7h0c-6.79,1.71-13.18-3.92-12.34-10.86l5.27-43.52c.5-4.09,3.46-7.46,7.45-8.47l16.54-4.18c3.88-.98,6.8-4.19,7.41-8.14l13.29-86.01c.61-3.96,3.53-7.16,7.41-8.14l69.27-17.51c7.1-1.8,13.64,4.43,12.22,11.62-4.94,24.96-9.2,48.06-12.77,69.3-1.19,7.1,5.3,13.07,12.28,11.31l31.67-8c6.83-1.73,13.25,3.99,12.33,10.97l-5.78,43.65c-.54,4.05-3.48,7.36-7.44,8.36l-49.89,12.61c-3.94,1-6.88,4.29-7.44,8.32-16.71,120.69-5.76,143.09,27.01,134.81,26.07-6.59,56.59-62.53,75.52-136.74,1.45-5.68,7.44-8.92,12.97-6.98l32.55,11.44Z"/>
        <path class="cls-1" d="M1341.93,341.81c13.46,5.18,20.55,19.96,16.14,33.69-21.37,66.52-70.36,166.05-141.05,181.71-19.54,4.33-39.03,1.1-53.77-9.92-11.7-8.75-27.95-7.2-37.43,3.92-16.13,18.94-38.08,34.62-68.4,41.34-75.14,16.64-114.84-47.01-67.57-256.1,2.32-10.28,10.38-18.31,20.67-20.59l32.8-7.26c19.43-4.3,36.75,13.04,32.45,32.48-28.85,130.2-26.66,177.69,3.88,170.93,37.44-8.29,50.55-62.96,74.6-210.41,1.79-10.99,10.1-19.8,20.98-22.2l34.35-7.61c18.84-4.17,35.91,12.06,32.72,31.09-22.54,134.39-34.12,178.58-10.36,173.32,24.16-5.35,53.34-52.38,74.3-117.25,4.81-14.9,21.09-22.76,35.7-17.13h0Z"/>
        <path class="cls-1" d="M1636.58,299.15c4.9,2.08,7.44,7.55,5.83,12.63-20.4,64.59-75.41,177.94-152.43,192.25-49.21,9.14-81.1-16.92-87.47-51.2-6.75-36.36,4.37-73.7,21.89-127.57,2.27-6.97-3.23-14.05-10.54-13.54-6.42.45-13.02.7-19.58.78-4.45.05-8.38,2.92-9.75,7.15-20.22,62.46-47.5,114.28-78.33,162.88-33.29,52.07-71.62,8.43-45.96-29.01,44.64-66.1,59.92-150.14,69.2-223.17.57-4.46,3.95-8.04,8.38-8.87l60.65-11.26c3.82-.71,7.74.75,10.09,3.85.91,1.21,1.65,2.44,1.84,3.42,2.43,12.89,14.35,22.7,28.4,21.42,24.19-2.2,48.99-5.12,69.13-8.07,13.68-2,24.74,11,20.56,24.19-18.84,59.35-40.78,133.99-36.28,158.19,1.5,8.06,7.75,11.77,15.44,10.34,26.39-4.9,60.36-58.62,83.99-131.3,1.88-5.77,8.31-8.68,13.89-6.31l31.04,13.19Z"/>
        <path class="cls-1" d="M1964.16,243.8c13.07,6.09,19.13,21.31,13.81,34.71-25.75,64.76-80.92,160.15-152.41,171.51l-.77.12c-21.27,3.2-40.1-2.07-53.48-12.37-10.92-8.42-26.66-6.93-36.07,3.14-15.15,16.23-35.5,28.05-62.04,32.04-53.37,8.03-92.11-23.47-101.47-85.66-13.53-89.91,46.38-196.4,131.46-209.2,16.86-2.54,34.21-.18,48.75,5.28,15.42,5.79,32.38-3.49,36.01-19.57,10.32-45.75,20.24-91.45,29.78-137.08,2.33-11.14,11.32-19.66,22.58-21.35l33.5-5.04c19.26-2.9,35.24,14.79,30.42,33.66-69.26,271.07-87.08,340.58-59.02,336.35,24.47-3.68,56.8-48.61,82.15-111.88,5.83-14.54,22.61-21.27,36.8-14.65h0ZM1761.83,280.03c3.53-15.32-6.5-30.66-22.04-33.05-5.35-.82-10.91-.87-16.75,0-44.86,6.75-66.64,72.25-59.83,117.54,2.85,18.93,13.49,31.84,33.6,28.82,25.41-3.82,48-39.46,65.02-113.32Z"/>
        <path class="cls-1" d="M2320.46,214.06c6.03,3.09,8.72,10.26,6.18,16.54-25.6,63.29-87.99,169.8-164.87,178.44-26.49,2.98-48.49-6.39-61.2-21.76-5.34-6.45-15.15-6.47-20.41.05-16.5,20.46-39.85,35.36-71.5,38.91-53.63,6.02-91.17-26.91-98.19-89.41-10.15-90.35,53.71-194.52,139.21-204.12,22.35-2.51,45.22,3.52,61.2,13.69,7.41,4.71,17.26.87,19.59-7.6h0c1.42-5.16,5.85-8.94,11.17-9.54l63.16-7.09c9.35-1.05,16.72,7.81,14,16.82-44.36,146.67-59.72,194.01-33.62,191.08,26.34-2.96,63.44-52.83,92.08-122.22,2.92-7.07,11.26-10.14,18.07-6.65l25.14,12.88ZM2109.33,223.82c1.45-5.82-1.25-11.91-6.54-14.72-10.39-5.51-21.64-8.39-34.3-6.96-45.08,5.06-69.3,69.69-64.19,115.21,2.14,19.02,12.29,32.33,32.5,30.06,26.98-3.03,52.15-41.66,72.54-123.58Z"/>
        <path class="cls-1" d="M2166.74,537.83c-7-89.69,117.64-128.07,237.53-150.25,6.51-1.2,11.82-5.9,13.84-12.2h0c4.78-14.89-10.3-28.24-24.61-21.93-12.01,5.29-25.24,8.99-38.4,10.01-124.98,9.76-102.17-115.09-52.63-251.61,2.42-6.66,8.5-11.3,15.56-11.85l65.48-5.11c13-1.02,22.76,11.69,18.4,23.98-29.71,83.77-57.37,170.19-10.75,166.55,55.65-4.34,79.03-106.26,101.34-187.14,2.02-7.31,8.41-12.56,15.97-13.15l65.75-5.13c12.68-.99,22.36,11.11,18.63,23.27-34.15,111.28-61.84,204.91-97.04,319.06-33.56,110.08-102.86,178.44-204.99,186.41-76.81,6-120.7-27.42-124.09-70.91ZM2377.74,484.73c8.94-13.58-3.48-31.23-19.27-27.37-53.27,13.02-96.85,35.93-94.87,61.39.95,12.21,12.14,20.54,31.35,19.05,31.35-2.45,59.55-17.75,82.79-53.06Z"/>
        <path class="cls-1" d="M2524.4,510.48c-1.92-36.71,33.06-72.28,69.85-73.44,29.79-.79,49.92,15.02,51.32,41.79,1.92,36.71-35.77,70.89-72.52,72.82-28.88,1.51-47.3-15.16-48.66-41.16ZM2596.03,326.27l95.98-286.82c5.87-17.53,21.86-29.7,40.33-30.66l12.6-.66c32.43-1.7,55.93,30.46,44.46,60.85l-108.58,287.48c-6.31,16.71-21.91,28.11-39.75,29.04h0c-31.7,1.66-55.11-29.13-45.03-59.23Z"/>
      </g>
      <g id="vinyl">
        <path d="M1694.9,745.6h4.37c3.06,0,5.78,1.91,6.83,4.79l25.8,71.18h.31l26.4-71.23c1.06-2.85,3.77-4.74,6.81-4.74h3.85c5.11,0,8.62,5.14,6.76,9.9l-31.86,81.48c-1.09,2.78-3.77,4.62-6.76,4.62h-11.43c-3.01,0-5.71-1.86-6.78-4.67l-31.08-81.48c-1.81-4.75,1.7-9.85,6.78-9.85Z" fill="inherit"/>
        <path d="M1798.08,745.6h4.71c4.01,0,7.26,3.25,7.26,7.26v81.48c0,4.01-3.25,7.26-7.26,7.26h-4.71c-4.01,0-7.26-3.25-7.26-7.26v-81.48c0-4.01,3.25-7.26,7.26-7.26Z" fill="inherit"/>
        <path d="M1840.08,745.6h9.29c2.35,0,4.56,1.14,5.92,3.06l47.98,67.66h.31v-63.47c0-4.01,3.25-7.26,7.26-7.26h3.79c4.01,0,7.26,3.25,7.26,7.26v81.48c0,4.01-3.25,7.26-7.26,7.26h-9.29c-2.35,0-4.56-1.14-5.92-3.06l-47.83-67.53h-.46v63.33c0,4.01-3.25,7.26-7.26,7.26h-3.79c-4.01,0-7.26-3.25-7.26-7.26v-81.48c0-4.01,3.25-7.26,7.26-7.26Z" fill="inherit"/>
        <path d="M1971.93,802.07l-31.81-45.02c-3.4-4.81,.04-11.45,5.93-11.45h4.43c2.41,0,4.66,1.2,6.01,3.19l20.85,30.86c2.89,4.28,9.2,4.26,12.06-.04l20.46-30.77c1.35-2.02,3.61-3.24,6.04-3.24h3.66c5.88,0,9.32,6.63,5.94,11.44l-31.7,45.03c-.86,1.22-1.32,2.68-1.32,4.18v28.09c0,4.01-3.25,7.26-7.26,7.26h-4.71c-4.01,0-7.26-3.25-7.26-7.26v-28.08c0-1.5-.46-2.96-1.33-4.19Z" fill="inherit"/>
        <path d="M2051.59,745.6h4.71c4.01,0,7.26,3.25,7.26,7.26v66.96c0,4.01,3.25,7.26,7.26,7.26h41.32c4.01,0,7.26,3.25,7.26,7.26h0c0,4.01-3.25,7.26-7.26,7.26h-60.55c-4.01,0-7.26-3.25-7.26-7.26v-81.48c0-4.01,3.25-7.26,7.26-7.26Z" fill="inherit"/>
      </g>
    </g>
  </g>
</svg>