<?xml version="1.0" encoding="UTF-8"?>
<svg id="Layer_2" data-name="Layer 2" xmlns="http://www.w3.org/2000/svg" viewBox="0 0 68.89 68.89">
  <g id="saturday">
    <g>
      <path d="M0,45.15v5.74c0,6.51,3.47,12.2,8.65,15.36.41-.09.82-.2,1.23-.34,5.79-1.93,8.72-7.51,7.32-11.71-2.2-6.57-10.41-6.22-17.2-9.05Z"/>
      <path d="M39.68,28.43c-.57-.07-1.16-.04-1.77.14-3.44.98-4.48,6.33-3.49,9.8.41,1.45,1.38,2.35,2.92,1.91,1.98-.56,3.4-3.66,3.96-9.78.09-1.01-.62-1.94-1.63-2.06Z"/>
      <path d="M62.08,39.73c-3.31.84-5.42.18-6.7-1.55-.35-.47-1.06-.44-1.38.05-1.62,2.49-3.67,4.51-6.13,5.21-1.73.49-3.32.24-4.49-.49-.84-.52-1.98-.3-2.54.52-1.02,1.5-2.53,2.7-4.65,3.31-4.09,1.17-7.44-.9-8.8-5.67-1.97-6.89,1.64-15.83,8.16-17.69,1.71-.49,3.56-.32,4.94.27.55.23,1.15-.05,1.36-.57.24-.61.67-1.12,1.68-1.42l2.7-.77c1.3-.37,2.56.71,2.39,2.06-1.41,10.98-1.87,14.56.05,14.01,1.8-.52,3.79-4.08,5.13-8.98.02-.06.03-.11.03-.17.06-.92.15-1.86.25-2.84.06-.54-.44-.98-.97-.84-.54.14-1.04-.31-.97-.86l.35-2.85c.08-.67.57-1.23,1.23-1.39l.19-.05c.64-.16,1.12-.69,1.22-1.34l.88-5.66c.1-.65.58-1.18,1.22-1.34.95-.24,2.37-.6,3.61-.91,1.16-.29,2.24.73,2.01,1.91-.19.99-.36,1.94-.53,2.85-.21,1.17.87,2.16,2.02,1.86,1.12-.28,2.18.66,2.03,1.81l-.21,1.62c-.09.67-.57,1.21-1.22,1.38-.83.21-1.98.5-2.81.71-.65.16-1.14.71-1.22,1.38-1.2,9.01-.32,10.69,2.21,10.05,1.6-.4,4.36-5.08,5.82-9.09v-6.21c0-9.94-8.06-18-18-18H18C8.74,0,1.13,6.99.12,15.97c1.75-1.15,3.74-2.13,5.96-2.87,11.52-3.85,20.27,1.14,21.46,9.6.37,2.6-1.2,5.09-3.69,5.92l-.64.21c-2.88.96-6.01-.59-6.93-3.48-1.37-4.27-5.4-4.91-8.56-3.85-4.89,1.63-6.92,6.12-5.54,10.25,2.95,8.83,21.37,3.23,26.09,17.88,2,6.19-.53,13.76-6.67,19.26h29.31c9.94,0,18-8.06,18-18v-14.78c-1.88,1.95-4.5,3.03-6.81,3.61ZM61.92,50.07s-15.24,2.18-24.42,6.47c0,0-2.14.88-2.39-1.08-.24-1.96,1.55-2.67,1.55-2.67,0,0,16.2-7.37,25.14-7.49,0,0,1.96.24,2.08,2.33.12,2.08-1.96,2.45-1.96,2.45Z"/>
    </g>
  </g>
</svg>