<?xml version="1.0" encoding="UTF-8"?>
<svg id="Layer_2" xmlns="http://www.w3.org/2000/svg" version="1.1" viewBox="0 0 68.9 68.9">
  <!-- Generator: Adobe Illustrator 29.1.0, SVG Export Plug-In . SVG Version: 2.1.0 Build 142)  -->
  <defs>
    <style>
      .st0 {
        fill: #f35345;
      }
    </style>
  </defs>
  <g id="saturday">
    <g>
      <path class="st0" d="M0,45.2v5.7c0,6.5,3.5,12.2,8.6,15.4.4,0,.8-.2,1.2-.3,5.8-1.9,8.7-7.5,7.3-11.7-2.2-6.6-10.4-6.2-17.2-9.1Z"/>
      <path class="st0" d="M39.7,28.4c-.6,0-1.2,0-1.8.1-3.4,1-4.5,6.3-3.5,9.8.4,1.5,1.4,2.3,2.9,1.9,2-.6,3.4-3.7,4-9.8,0-1-.6-1.9-1.6-2.1h0Z"/>
      <path class="st0" d="M62.1,39.7c-3.3.8-5.4.2-6.7-1.5-.3-.5-1.1-.4-1.4,0-1.6,2.5-3.7,4.5-6.1,5.2-1.7.5-3.3.2-4.5-.5-.8-.5-2-.3-2.5.5-1,1.5-2.5,2.7-4.7,3.3-4.1,1.2-7.4-.9-8.8-5.7-2-6.9,1.6-15.8,8.2-17.7,1.7-.5,3.6-.3,4.9.3.5.2,1.2,0,1.4-.6.2-.6.7-1.1,1.7-1.4l2.7-.8c1.3-.4,2.6.7,2.4,2.1-1.4,11-1.9,14.6,0,14,1.8-.5,3.8-4.1,5.1-9,0,0,0-.1,0-.2,0-.9.2-1.9.2-2.8,0-.5-.4-1-1-.8-.5.1-1-.3-1-.9l.3-2.9c0-.7.6-1.2,1.2-1.4h.2c.6-.2,1.1-.7,1.2-1.4l.9-5.7c0-.6.6-1.2,1.2-1.3,1-.2,2.4-.6,3.6-.9,1.2-.3,2.2.7,2,1.9-.2,1-.4,1.9-.5,2.9-.2,1.2.9,2.2,2,1.9,1.1-.3,2.2.7,2,1.8l-.2,1.6c0,.7-.6,1.2-1.2,1.4-.8.2-2,.5-2.8.7-.7.2-1.1.7-1.2,1.4-1.2,9-.3,10.7,2.2,10.1,1.6-.4,4.4-5.1,5.8-9.1v-6.2C68.9,8.1,60.9,0,50.9,0H18C8.7,0,1.1,7,.1,16c1.8-1.1,3.7-2.1,6-2.9,11.5-3.9,20.3,1.1,21.5,9.6.4,2.6-1.2,5.1-3.7,5.9l-.6.2c-2.9,1-6-.6-6.9-3.5-1.4-4.3-5.4-4.9-8.6-3.9-4.9,1.6-6.9,6.1-5.5,10.2,2.9,8.8,21.4,3.2,26.1,17.9,2,6.2-.5,13.8-6.7,19.3h29.3c9.9,0,18-8.1,18-18v-14.8c-1.9,2-4.5,3-6.8,3.6h0ZM61.9,50.1s-15.2,2.2-24.4,6.5c0,0-2.1.9-2.4-1.1-.2-2,1.5-2.7,1.5-2.7,0,0,16.2-7.4,25.1-7.5,0,0,2,.2,2.1,2.3.1,2.1-2,2.5-2,2.5h0Z"/>
    </g>
  </g>
</svg>